<mxfile host="app.diagrams.net" agent="Mozilla/5.0 (Windows NT 10.0; Win64; x64) AppleWebKit/537.36 (KHTML, like Gecko) Chrome/131.0.0.0 Safari/537.36" version="25.0.3">
  <diagram name="Page-1" id="j4d4J6mNRXAN9QawdITf">
    <mxGraphModel dx="1687" dy="878" grid="1" gridSize="10" guides="1" tooltips="1" connect="1" arrows="1" fold="1" page="1" pageScale="1" pageWidth="850" pageHeight="1100" math="0" shadow="0">
      <root>
        <mxCell id="0" />
        <mxCell id="1" parent="0" />
        <mxCell id="p5dLWtdkN-arEtDCeNlb-5" style="edgeStyle=orthogonalEdgeStyle;rounded=0;orthogonalLoop=1;jettySize=auto;html=1;entryX=0.5;entryY=0;entryDx=0;entryDy=0;" edge="1" parent="1" source="p5dLWtdkN-arEtDCeNlb-1" target="p5dLWtdkN-arEtDCeNlb-2">
          <mxGeometry relative="1" as="geometry" />
        </mxCell>
        <mxCell id="p5dLWtdkN-arEtDCeNlb-1" value="&lt;font style=&quot;font-size: 24px;&quot;&gt;start&lt;/font&gt;" style="strokeWidth=2;html=1;shape=mxgraph.flowchart.start_1;whiteSpace=wrap;" vertex="1" parent="1">
          <mxGeometry x="375" y="40" width="100" height="60" as="geometry" />
        </mxCell>
        <mxCell id="p5dLWtdkN-arEtDCeNlb-7" style="edgeStyle=orthogonalEdgeStyle;rounded=0;orthogonalLoop=1;jettySize=auto;html=1;entryX=0.5;entryY=0;entryDx=0;entryDy=0;" edge="1" parent="1" source="p5dLWtdkN-arEtDCeNlb-2" target="p5dLWtdkN-arEtDCeNlb-4">
          <mxGeometry relative="1" as="geometry" />
        </mxCell>
        <mxCell id="p5dLWtdkN-arEtDCeNlb-2" value="input n" style="shape=parallelogram;perimeter=parallelogramPerimeter;whiteSpace=wrap;html=1;fixedSize=1;" vertex="1" parent="1">
          <mxGeometry x="364" y="140" width="122" height="30" as="geometry" />
        </mxCell>
        <mxCell id="p5dLWtdkN-arEtDCeNlb-3" value="&lt;font style=&quot;font-size: 24px;&quot;&gt;end&lt;/font&gt;" style="strokeWidth=2;html=1;shape=mxgraph.flowchart.start_1;whiteSpace=wrap;" vertex="1" parent="1">
          <mxGeometry x="375" y="570" width="100" height="60" as="geometry" />
        </mxCell>
        <mxCell id="p5dLWtdkN-arEtDCeNlb-11" style="edgeStyle=orthogonalEdgeStyle;rounded=0;orthogonalLoop=1;jettySize=auto;html=1;entryX=0.5;entryY=0;entryDx=0;entryDy=0;" edge="1" parent="1" source="p5dLWtdkN-arEtDCeNlb-4" target="p5dLWtdkN-arEtDCeNlb-8">
          <mxGeometry relative="1" as="geometry" />
        </mxCell>
        <mxCell id="p5dLWtdkN-arEtDCeNlb-4" value="output&lt;div&gt;&quot;output&quot;&lt;/div&gt;" style="shape=parallelogram;perimeter=parallelogramPerimeter;whiteSpace=wrap;html=1;fixedSize=1;" vertex="1" parent="1">
          <mxGeometry x="364" y="220" width="122" height="30" as="geometry" />
        </mxCell>
        <mxCell id="p5dLWtdkN-arEtDCeNlb-12" style="edgeStyle=orthogonalEdgeStyle;rounded=0;orthogonalLoop=1;jettySize=auto;html=1;entryX=0.5;entryY=0;entryDx=0;entryDy=0;" edge="1" parent="1" source="p5dLWtdkN-arEtDCeNlb-8" target="p5dLWtdkN-arEtDCeNlb-9">
          <mxGeometry relative="1" as="geometry" />
        </mxCell>
        <mxCell id="p5dLWtdkN-arEtDCeNlb-8" value="for ( i = n, i &amp;gt;= 2, i--" style="rhombus;whiteSpace=wrap;html=1;" vertex="1" parent="1">
          <mxGeometry x="354" y="290" width="142" height="70" as="geometry" />
        </mxCell>
        <mxCell id="p5dLWtdkN-arEtDCeNlb-13" style="edgeStyle=orthogonalEdgeStyle;rounded=0;orthogonalLoop=1;jettySize=auto;html=1;entryX=0.5;entryY=0;entryDx=0;entryDy=0;" edge="1" parent="1" source="p5dLWtdkN-arEtDCeNlb-9" target="p5dLWtdkN-arEtDCeNlb-10">
          <mxGeometry relative="1" as="geometry" />
        </mxCell>
        <mxCell id="p5dLWtdkN-arEtDCeNlb-9" value="if (is_prime(i)" style="rhombus;whiteSpace=wrap;html=1;" vertex="1" parent="1">
          <mxGeometry x="520" y="370" width="142" height="70" as="geometry" />
        </mxCell>
        <mxCell id="p5dLWtdkN-arEtDCeNlb-14" style="edgeStyle=orthogonalEdgeStyle;rounded=0;orthogonalLoop=1;jettySize=auto;html=1;entryX=1;entryY=1;entryDx=0;entryDy=0;" edge="1" parent="1" source="p5dLWtdkN-arEtDCeNlb-10" target="p5dLWtdkN-arEtDCeNlb-8">
          <mxGeometry relative="1" as="geometry" />
        </mxCell>
        <mxCell id="p5dLWtdkN-arEtDCeNlb-10" value="output i" style="shape=parallelogram;perimeter=parallelogramPerimeter;whiteSpace=wrap;html=1;fixedSize=1;" vertex="1" parent="1">
          <mxGeometry x="530" y="480" width="122" height="30" as="geometry" />
        </mxCell>
        <mxCell id="p5dLWtdkN-arEtDCeNlb-15" style="edgeStyle=orthogonalEdgeStyle;rounded=0;orthogonalLoop=1;jettySize=auto;html=1;entryX=0.5;entryY=0;entryDx=0;entryDy=0;entryPerimeter=0;" edge="1" parent="1" source="p5dLWtdkN-arEtDCeNlb-8" target="p5dLWtdkN-arEtDCeNlb-3">
          <mxGeometry relative="1" as="geometry" />
        </mxCell>
        <mxCell id="p5dLWtdkN-arEtDCeNlb-20" style="edgeStyle=orthogonalEdgeStyle;rounded=0;orthogonalLoop=1;jettySize=auto;html=1;entryX=0.5;entryY=0;entryDx=0;entryDy=0;" edge="1" parent="1" source="p5dLWtdkN-arEtDCeNlb-16" target="p5dLWtdkN-arEtDCeNlb-17">
          <mxGeometry relative="1" as="geometry" />
        </mxCell>
        <mxCell id="p5dLWtdkN-arEtDCeNlb-16" value="&lt;font style=&quot;font-size: 16px;&quot;&gt;is_prime(num)&lt;/font&gt;" style="strokeWidth=2;html=1;shape=mxgraph.flowchart.start_1;whiteSpace=wrap;" vertex="1" parent="1">
          <mxGeometry x="919" y="20" width="140" height="60" as="geometry" />
        </mxCell>
        <mxCell id="p5dLWtdkN-arEtDCeNlb-24" style="edgeStyle=orthogonalEdgeStyle;rounded=0;orthogonalLoop=1;jettySize=auto;html=1;entryX=0.5;entryY=0;entryDx=0;entryDy=0;" edge="1" parent="1" source="p5dLWtdkN-arEtDCeNlb-17" target="p5dLWtdkN-arEtDCeNlb-22">
          <mxGeometry relative="1" as="geometry" />
        </mxCell>
        <mxCell id="p5dLWtdkN-arEtDCeNlb-17" value="if (num &amp;lt;= 1)" style="rhombus;whiteSpace=wrap;html=1;" vertex="1" parent="1">
          <mxGeometry x="919" y="120" width="142" height="70" as="geometry" />
        </mxCell>
        <mxCell id="p5dLWtdkN-arEtDCeNlb-19" value="&lt;font style=&quot;font-size: 16px;&quot;&gt;return 0&lt;/font&gt;" style="strokeWidth=2;html=1;shape=mxgraph.flowchart.start_1;whiteSpace=wrap;" vertex="1" parent="1">
          <mxGeometry x="750" y="250" width="100" height="60" as="geometry" />
        </mxCell>
        <mxCell id="p5dLWtdkN-arEtDCeNlb-21" style="edgeStyle=orthogonalEdgeStyle;rounded=0;orthogonalLoop=1;jettySize=auto;html=1;entryX=0.5;entryY=0;entryDx=0;entryDy=0;entryPerimeter=0;" edge="1" parent="1" source="p5dLWtdkN-arEtDCeNlb-17" target="p5dLWtdkN-arEtDCeNlb-19">
          <mxGeometry relative="1" as="geometry" />
        </mxCell>
        <mxCell id="p5dLWtdkN-arEtDCeNlb-25" style="edgeStyle=orthogonalEdgeStyle;rounded=0;orthogonalLoop=1;jettySize=auto;html=1;entryX=0.5;entryY=0;entryDx=0;entryDy=0;" edge="1" parent="1" source="p5dLWtdkN-arEtDCeNlb-22" target="p5dLWtdkN-arEtDCeNlb-23">
          <mxGeometry relative="1" as="geometry" />
        </mxCell>
        <mxCell id="p5dLWtdkN-arEtDCeNlb-29" style="edgeStyle=orthogonalEdgeStyle;rounded=0;orthogonalLoop=1;jettySize=auto;html=1;entryX=0.5;entryY=0;entryDx=0;entryDy=0;entryPerimeter=0;" edge="1" parent="1" source="p5dLWtdkN-arEtDCeNlb-22" target="p5dLWtdkN-arEtDCeNlb-30">
          <mxGeometry relative="1" as="geometry">
            <mxPoint x="989.9999999999998" y="520" as="targetPoint" />
          </mxGeometry>
        </mxCell>
        <mxCell id="p5dLWtdkN-arEtDCeNlb-22" value="for ( i = 2, i * i &amp;lt;= num, i++" style="rhombus;whiteSpace=wrap;html=1;" vertex="1" parent="1">
          <mxGeometry x="890" y="220" width="200" height="110" as="geometry" />
        </mxCell>
        <mxCell id="p5dLWtdkN-arEtDCeNlb-23" value="if (num % i == 0" style="rhombus;whiteSpace=wrap;html=1;" vertex="1" parent="1">
          <mxGeometry x="1110" y="310" width="120" height="70" as="geometry" />
        </mxCell>
        <mxCell id="p5dLWtdkN-arEtDCeNlb-28" style="edgeStyle=orthogonalEdgeStyle;rounded=0;orthogonalLoop=1;jettySize=auto;html=1;entryX=1;entryY=1;entryDx=0;entryDy=0;" edge="1" parent="1" source="p5dLWtdkN-arEtDCeNlb-26" target="p5dLWtdkN-arEtDCeNlb-22">
          <mxGeometry relative="1" as="geometry" />
        </mxCell>
        <mxCell id="p5dLWtdkN-arEtDCeNlb-26" value="&lt;font style=&quot;font-size: 16px;&quot;&gt;return 0&lt;/font&gt;" style="strokeWidth=2;html=1;shape=mxgraph.flowchart.start_1;whiteSpace=wrap;" vertex="1" parent="1">
          <mxGeometry x="1120" y="420" width="100" height="60" as="geometry" />
        </mxCell>
        <mxCell id="p5dLWtdkN-arEtDCeNlb-27" style="edgeStyle=orthogonalEdgeStyle;rounded=0;orthogonalLoop=1;jettySize=auto;html=1;entryX=0.5;entryY=0;entryDx=0;entryDy=0;entryPerimeter=0;" edge="1" parent="1" source="p5dLWtdkN-arEtDCeNlb-23" target="p5dLWtdkN-arEtDCeNlb-26">
          <mxGeometry relative="1" as="geometry" />
        </mxCell>
        <mxCell id="p5dLWtdkN-arEtDCeNlb-30" value="&lt;font style=&quot;font-size: 16px;&quot;&gt;return 1&lt;/font&gt;" style="strokeWidth=2;html=1;shape=mxgraph.flowchart.start_1;whiteSpace=wrap;" vertex="1" parent="1">
          <mxGeometry x="940" y="530" width="100" height="60" as="geometry" />
        </mxCell>
      </root>
    </mxGraphModel>
  </diagram>
</mxfile>
